# xmcd
#
# Track frame offsets: 
#        150
#        14455
#        28574
#        44419
#        56136
#        67107
#        75281
#        89989
#        105714
#        127205
#        142466
#        156705
#        169724
#        181519
#        195181
#        209936
#
# Disc length: 3029 seconds
#
# Revision: 0
# Processed by: cddbd v1.5.2PL0 Copyright (c) Steve Scherf et al.
# Submitted via: ExactAudioCopy v0.99pb4
#
DISCID=f40bd310
DTITLE=Blues Abroad - No Younger
DYEAR=1997
DGENRE=Blues
TTITLE0=T-Bone Shuffle
TTITLE1=Wait On Time
TTITLE2=Just A Dream
TTITLE3=Don't Stay Out All Night
TTITLE4=Pony Blues
TTITLE5=Stand By Me
TTITLE6=Ain't Nobody
TTITLE7=You Can't Judge A Book By Its Cover
TTITLE8=Life Is Like That
TTITLE9=Make Up Your Mind
TTITLE10=Wild Woman
TTITLE11=32-20 Blues
TTITLE12=I Want To Be Loved
TTITLE13=You Upset Me Baby
TTITLE14=You're Sweet
TTITLE15=You're Not Getting No Younger
EXTD=
EXTT0=
EXTT1=
EXTT2=
EXTT3=
EXTT4=
EXTT5=
EXTT6=
EXTT7=
EXTT8=
EXTT9=
EXTT10=
EXTT11=
EXTT12=
EXTT13=
EXTT14=
EXTT15=
PLAYORDER=
